<svg id="Capa_1" enable-background="new 0 0 512 512" height="512" viewBox="0 0 512 512" width="512" xmlns="http://www.w3.org/2000/svg"><g><g><g><g><g><g><g><g><g><circle cx="256" cy="256" fill="#ffce00" r="256"/></g></g></g></g></g></g></g></g><path d="m509.527 291.726-211.918-211.918-6.1 36.825-40.751-40.751-12.453 65.161 90.857 90.857-33.915 10.932-69.177-69.177-170.504 146.433 37.366 37.365-3.093 2.524 151.616 151.616c4.814.27 9.663.406 14.545.406 129.261.001 236.146-95.8 253.527-220.273z" fill="#ffa300"/><g><path d="m365.601 248.034h-26.435l-26.901-79.668c15.799 0 29.838 10.077 34.893 25.046z" fill="#dce1eb"/></g><g><path d="m250.758 248.034-29.483-20.233-17.819-54.147h22.614z" fill="#636978"/></g><g><path d="m209.277 95.006c0-13.891 11.261-25.152 25.152-25.152 9.158 0 17.173 4.894 21.571 12.21 4.399-7.316 12.413-12.21 21.571-12.21 13.891 0 25.152 11.261 25.152 25.152 0 35.937-46.723 57.509-46.723 57.509s-46.723-23.762-46.723-57.509z" fill="#ff73a5"/></g><g><path d="m256 82.064c4.399-7.316 12.413-12.21 21.571-12.21 13.891 0 25.152 11.261 25.152 25.152 0 35.937-46.723 57.509-46.723 57.509z" fill="#ff468c"/></g><g><path d="m403.41 227.801h-182.135l-17.819-54.146-118.813 44.606c-15.285 5.738-25.409 20.354-25.409 36.68v67.473h405.522v-31.532c0-10.142-3.822-19.912-10.703-27.363l-21.018-22.755c-7.635-8.264-18.374-12.963-29.625-12.963z" fill="#fff"/></g><g><path d="m464.756 290.883c0-10.143-3.822-19.912-10.704-27.363l-21.019-22.755c-7.634-8.265-18.373-12.964-29.623-12.964h-136.111v94.614h197.457z" fill="#f2f6fc"/></g><g><path d="m458.457 324.029h-392.741c-8.308 0-15.043-6.735-15.043-15.043v-1.763c0-8.308 6.735-15.043 15.043-15.043h392.741c8.308 0 15.043 6.735 15.043 15.043v1.763c0 8.308-6.735 15.043-15.043 15.043z" fill="#e9edf5"/></g><g><path d="m458.457 292.179h-191.158v31.85h191.158c8.308 0 15.043-6.735 15.043-15.043v-1.763c0-8.308-6.735-15.044-15.043-15.044z" fill="#dce1eb"/></g><g><g><circle cx="388.027" cy="324.029" fill="#636978" r="49.094"/></g><g><circle cx="388.027" cy="324.029" fill="#414952" r="22.659"/></g><g><circle cx="123.26" cy="324.029" fill="#636978" r="49.094"/></g><g><circle cx="123.26" cy="324.029" fill="#414952" r="22.659"/></g></g><g><path d="m423.858 265.99h32.297c-.666-.848-1.367-1.672-2.103-2.47l-20.675-22.384h-34.372c0 13.727 11.127 24.854 24.853 24.854z" fill="#ff73a5"/></g><g><path d="m80.333 274.935v-21.649h-21.064c-.023.549-.035 1.101-.035 1.655v19.994z" fill="#ff73a5"/></g></g></svg>