<svg id="Layer_1" enable-background="new 0 0 130 130" height="512" viewBox="0 0 130 130" width="512" xmlns="http://www.w3.org/2000/svg"><g><g><circle cx="65" cy="64.999" fill="#96ddff" r="64"/></g><g><path d="m110.38919 95.94157v14.17993c-11.16016 11.22021-26.4502 18.33008-43.40015 18.8501-15.1399-.41992-28.95996-6.10986-39.71997-15.30005v-17.72998c0-6.8999 4.8501-12.82983 11.6001-14.26001 5-1.06006 9.98975-1.84985 14.97998-2.36987 4.7998-.51001 10.18995 10.62988 14.97998 10.60986 4.7998-.02002 9.01001-11.19995 13.81006-10.72998 5.37988.52002 10.76978 1.3501 16.1499 2.48999 6.75 1.43018 11.6001 7.36011 11.6001 14.26001z" fill="#83d3f2"/><g><path d="m97.88937 39.42812-6.78002-1.33723c-.41142-1.32788-.94453-2.60918-1.58039-3.82495l3.84344-5.73251c.74818-1.1128.608-2.59981-.3459-3.54435l-4.09618-4.10532c-.9539-.94454-2.44067-1.09431-3.55348-.34612l-5.73274 3.84366c-1.21577-.64544-2.5062-1.17833-3.83408-1.59934l-1.32811-6.7613c-.26187-1.30915-1.41212-2.26305-2.74936-2.26305h-5.8074c-1.33723 0-2.48748.9539-2.74959 2.26305l-1.32788 6.77089c-1.32788.41142-2.60918.94431-3.82472 1.59911l-5.7421-3.85303c-1.1128-.74819-2.59982-.59841-3.55371.34612l-4.10532 4.10532c-.94454.94454-1.08495 2.43155-.33677 3.54435l3.85303 5.74187c-.64522 1.21577-1.16897 2.48771-1.58975 3.81559l-6.78002 1.33723c-1.31874.26188-2.26328 1.41212-2.26328 2.75872v5.79827c0 1.3466.94453 2.49685 2.26328 2.75872l6.78002 1.32788c.41142 1.3281.94453 2.59982 1.58975 3.81559l-3.85303 5.75124c-.74818 1.11303-.60777 2.59981.33677 3.54435l4.10532 4.10532c.9539.94476 2.44091 1.09431 3.55371.34612l5.7421-3.85303c1.21554.6548 2.49684 1.18769 3.82472 1.59933l1.32788 6.77066c.2621 1.30915 1.41235 2.26305 2.74959 2.26305h5.8074c1.33724 0 2.48749-.9539 2.74936-2.26305l1.32811-6.7613c1.32787-.42101 2.6183-.9539 3.83408-1.59911l5.73274 3.84344c1.11281.74818 2.59959.59864 3.55348-.34612l4.09618-4.10532c.9539-.94454 1.09409-2.43132.3459-3.54435l-3.85281-5.74187c.64522-1.21577 1.17833-2.49685 1.58975-3.82495l6.78002-1.32788c1.31874-.26188 2.26305-1.41212 2.26305-2.75872v-5.79827c.00001-1.34659-.9443-2.49684-2.26304-2.75871zm-29.41411 15.51052c-5.42682 0-9.84482-4.41035-9.84482-9.8603 0-5.43465 4.418-9.84482 9.84482-9.84482 5.44995 0 9.85265 4.41016 9.85265 9.84482 0 5.44996-4.4027 9.8603-9.85265 9.8603z" fill="#83d3f2"/></g><path d="m106.55911 95.94157v17.72998c-11.18994 9.56006-25.7002 15.33008-41.56006 15.33008s-30.37012-5.77002-41.56006-15.33008v-17.72998c0-6.8999 4.8501-12.82983 11.6001-14.26001 5-1.06006 9.98999-1.84985 14.97998-2.36987 4.80005-.51001 10.18994 10.62988 14.97998 10.60986 4.80005-.02002 9.01001-11.19995 13.81006-10.72998 5.37988.52002 10.77002 1.3501 16.1499 2.48999 6.75 1.43018 11.6001 7.36011 11.6001 14.26001z" fill="#ededed"/><g fill="#fad553"><path d="m59.90329 89.88129 2.83936 8.15314h4.51958l2.83907-8.15314z"/><path d="m70.67899 128.74162c-.05005.01001-.10986.02002-.16992.02002-.17993.02002-.36011.04004-.54004.04004-.32007.03003-.6499.06006-.96997.06982-.3501.03003-.68994.05005-1.04004.06006-.48999.03003-.97998.04004-1.47998.05005-.48999.01001-.97998.02002-1.47998.02002s-.98999-.01001-1.47998-.02002c-.5-.01001-.98999-.02002-1.47998-.05005-.33008-.01001-.66016-.03003-.98999-.0498-.36011-.02002-.71997-.05005-1.08008-.08008-.15991-.01001-.32007-.02002-.47998-.04004-.06006 0-.11011-.01001-.16992-.02002l.16992-1.54004.11011-.97998 3.13989-28.17993h4.52002l3.13989 28.17993.11011 1.01001z"/></g><path d="m59.83914 128.79167c-13.84009-1.1001-26.43018-6.6001-36.39014-15.11011v-17.73999c0-6.88989 4.84009-12.82983 11.59009-14.26001 1.81982-.38989 3.63989-.72998 5.45996-1.03003 2.96997-.53003 5.94995-.94995 8.92993-1.28003z" fill="#168de2"/><path d="m59.82913 128.79167c-.17017-.01001-.34009-.02002-.51001-.05005-2.25-.18994-4.46021-.5-6.63013-.92993l-10.62988-21.82007c-.61011-1.26001-.46997-2.76001.35986-3.89014l3.27002-4.38989-6-2.30005c-1.83984-.69995-2.83008-2.70996-2.26001-4.59985l3.07007-10.16016c2.96997-.53003 5.94995-.94995 8.92993-1.28003l10.06006 47.83008z" fill="#2e6bce"/><path d="m106.55911 95.94157v17.72998c-9.95996 8.51001-22.55005 14.01001-36.38013 15.12012l10.39014-49.42017c2.98999.33008 5.96997.75 8.93994 1.28003 1.82007.30005 3.63989.64014 5.44995 1.03003 6.76001 1.43018 11.6001 7.37012 11.6001 14.26001z" fill="#168de2"/><path d="m106.5491 95.94157v17.73999c-1.33008 1.14014-2.70996 2.21997-4.14014 3.25v-20.98999c0-6.88989-4.83984-12.82983-11.59985-14.26001-1.82007-.38989-3.63013-.72998-5.4502-1.03003-1.62988-.28979-3.25977-.55005-4.88989-.78003l.1001-.5c2.97998.33008 5.96997.75 8.93994 1.28003 1.81006.30005 3.63013.64014 5.44995 1.03003 6.76001 1.43018 11.59009 7.37012 11.59009 14.26001z" fill="#2e6bce" opacity=".5"/><path d="m90.31912 95.41154-6 2.30005 3.26001 4.38989c.83984 1.13013.97998 2.63013.35986 3.89014l-10.62988 21.82007c-2.16992.42993-4.38013.73999-6.63013.92993-.15991.03003-.32983.04004-.5.05005l.33008-1.56006 10.06006-47.86011c2.98999.33008 5.96997.75 8.93994 1.28003l3.06006 10.16016c.57007 1.88989-.41015 3.8999-2.25 4.59985z" fill="#2e6bce"/><g fill="#fff"><path d="m64.28486 91.31817-8.13116 6.36926c-.92382.72364-2.27839.42463-2.81172-.62067l-8.20993-16.091c-.34579-.67773-.24529-1.49754.25396-2.07168l2.57347-2.95949c.68968-.79313 1.89816-.86009 2.67124-.14801l13.76762 12.68122c.84601.77926.79201 2.13108-.11348 2.84037z"/><path d="m65.71497 91.31817 8.13116 6.36926c.92381.72364 2.27839.42463 2.81172-.62067l8.20993-16.091c.34579-.67773.24529-1.49754-.25396-2.07168l-2.57347-2.95949c-.68968-.79313-1.89816-.86009-2.67124-.14801l-13.76762 12.68123c-.84602.77925-.79201 2.13107.11348 2.84036z"/></g><path d="m27.48904 111.74162c.47503 0 .86011-.38508.86011-.8601v-6.19483c0-.46997-.39014-.8501-.8501-.8501-.47998 0-.87012.38013-.87012.8501v6.19483c0 .47502.38509.8601.86011.8601z" fill="#30a6ef"/><path d="m26.63169 100.45378v-6.48056c0-.47618.38865-.85229.86514-.85229.46363 0 .85228.37611.85228.85229v6.48056c0 .46394-.38865.85228-.85228.85228-.47649 0-.86514-.38834-.86514-.85228z" fill="#30a6ef"/><g><path d="m94.06063 39.42812-6.78001-1.33723c-.41142-1.32788-.94454-2.60918-1.58039-3.82495l3.84344-5.73251c.74818-1.1128.608-2.59981-.34589-3.54435l-4.09618-4.10532c-.9539-.94454-2.44068-1.09431-3.55348-.34612l-5.73274 3.84367c-1.21577-.64544-2.50621-1.17833-3.83408-1.59934l-1.3281-6.7613c-.26188-1.30915-1.41212-2.26305-2.74936-2.26305h-5.8074c-1.33723 0-2.48748.9539-2.74959 2.26305l-1.32787 6.77089c-1.32788.41142-2.60918.94431-3.82472 1.59911l-5.7421-3.85303c-1.1128-.74819-2.59982-.59841-3.55371.34612l-4.10532 4.10532c-.94453.94454-1.08495 2.43155-.33676 3.54435l3.85303 5.74187c-.64522 1.21577-1.16897 2.48771-1.58975 3.81559l-6.78002 1.33723c-1.31874.26188-2.26328 1.41212-2.26328 2.75872v5.79827c0 1.3466.94453 2.49685 2.26328 2.75872l6.78002 1.32788c.41142 1.3281.94453 2.59982 1.58975 3.81559l-3.85303 5.75124c-.74819 1.11303-.60777 2.59981.33676 3.54435l4.10532 4.10532c.9539.94476 2.44091 1.09431 3.55371.34612l5.7421-3.85303c1.21555.6548 2.49685 1.18769 3.82472 1.59933l1.32787 6.77066c.26211 1.30915 1.41235 2.26305 2.74959 2.26305h5.8074c1.33723 0 2.48748-.9539 2.74936-2.26305l1.3281-6.7613c1.32787-.42101 2.61831-.9539 3.83408-1.59911l5.73274 3.84344c1.1128.74818 2.59958.59864 3.55348-.34612l4.09618-4.10532c.9539-.94454 1.09408-2.43132.34589-3.54435l-3.8528-5.74187c.64521-1.21577 1.17833-2.49685 1.58975-3.82495l6.78001-1.32788c1.31874-.26188 2.26305-1.41212 2.26305-2.75872v-5.79827c0-1.3466-.94431-2.49685-2.26305-2.75872zm-28.71476 15.51052c-5.42682 0-9.84481-4.41035-9.84481-9.8603 0-5.43465 4.418-9.84482 9.84481-9.84482 5.44996 0 9.85265 4.41016 9.85265 9.84482 0 5.44996-4.40269 9.8603-9.85265 9.8603z" fill="#f34b50"/></g><g><path d="m94.45945 39.54969c.1141.29301.163.60232.163.92793v5.79735c0 1.35173-.94463 2.50787-2.26376 2.76867l-6.77418 1.31874c-.42341 1.33543-.94463 2.62196-1.59584 3.827l3.8592 5.74845c.74942 1.10723.60271 2.60527-.35821 3.54989l-4.0874 4.10371c-.96053.94422-2.44267 1.09093-3.5499.34191l-5.73215-3.8433c-1.22133.65161-2.50786 1.17283-3.8429 1.59584l-1.31914 6.75827c-.2767 1.31914-1.41693 2.26336-2.75197 2.26336h-5.81365c-.32561 0-.63531-.0485-.92832-.16261.39081 1.10723 1.43284 1.87255 2.63827 1.87255h5.79695c1.33543 0 2.49156-.96092 2.75237-2.26336l1.33503-6.75827c1.31914-.42342 2.60567-.96053 3.827-1.61214l5.73214 3.8433c1.10723.74902 2.60567.60232 3.5499-.34191l4.10371-4.10371c.94462-.94462 1.09093-2.42636.3419-3.54989l-3.8429-5.73215c.63492-1.22133 1.17242-2.49156 1.57954-3.827l6.79047-1.33543c1.30283-.26041 2.24706-1.40024 2.24706-2.75197v-5.79734c.00003-1.20505-.7649-2.24708-1.85622-2.63789zm-5.25983-14.55817-1.70995-1.70994c.96092.94423 1.10763 2.44266.35821 3.54989l-3.8429 5.73215c.63491 1.22133 1.15613 2.49156 1.57954 3.827l1.18873.22781c-.32561-.81422-.68382-1.59584-1.07462-2.34486l3.8429-5.73215c.74901-1.12394.6027-2.60567-.34191-3.5499zm-18.54778-8.97313c-.19561-.99313-.91203-1.77475-1.82405-2.10036.0652.13.0978.26041.1304.40711l1.31914 6.75787c.50452.163.99313.32561 1.48174.52121zm-14.33037 49.66747c-1.33543-.42301-2.62197-.94423-3.827-1.61174l-5.74845 3.8592c-1.09093.73272-2.54046.60231-3.50099-.29301l1.66105 1.64474c.94462.94423 2.42636 1.09093 3.54989.34191l5.73215-3.8433c.76532.40711 1.54694.76572 2.36116 1.09132zm-15.30759-15.32349-6.77417-1.31874c-.1467-.0326-.27671-.0652-.40711-.1141.32561.91162 1.10723 1.61214 2.10075 1.80735l5.60174 1.10723c-.1952-.48822-.3745-.97683-.52121-1.48174z" fill="#e53946"/></g><g><path d="m75.67631 30.22511c-.18765 0-.37689-.05407-.54546-.16777-2.99608-2.02283-6.50105-3.09229-10.138-3.09229-.5391 0-.97643-.43732-.97643-.97722s.43732-.97722.97643-.97722c4.02817 0 7.91162 1.18555 11.23211 3.42784.44687.30215.56455.90884.2624 1.3565-.18925.27909-.49617.43016-.81105.43016z" fill="#ff6c77"/></g><g><path d="m54.59563 30.05098c-.31964 0-.63293-.15664-.82058-.44369-.2942-.45243-.16698-1.05753.28625-1.35253 2.11507-1.37797 4.43528-2.33214 6.89543-2.83625.52161-.10575 1.04322.23218 1.15295.76095.10814.52877-.23218 1.0456-.76174 1.15374-2.21843.45402-4.31124 1.31516-6.22116 2.55955-.1638.10654-.34827.15823-.53115.15823z" fill="#ff6c77"/></g><g><path d="m45.94453 44.89143c-.02068 0-.03976-.0008-.06043-.00159-.5391-.0326-.94939-.49537-.916-1.03447.30851-5.13341 2.55557-9.90265 6.32611-13.42987.39757-.36894 1.0146-.34748 1.38195.04612.36895.39359.34668 1.01221-.04612 1.38036-3.40478 3.18453-5.43397 7.4894-5.71227 12.12108-.03021.51841-.46117.91837-.97324.91837z" fill="#ff6c77"/></g><g><path d="m64.99284 65.16187c-9.80087 0-18.32315-7.30413-19.82278-16.9905-.0827-.53354.28307-1.03209.81581-1.11478s1.03368.28307 1.11478.81581c1.35332 8.74254 9.04549 15.33502 17.89219 15.33502.5391 0 .97643.43732.97643.97722s-.43733.97723-.97643.97723z" fill="#ff6c77"/></g><path d="m106.55911 111.12151v2.55005c-11.18994 9.56006-25.7002 15.33008-41.56006 15.33008s-30.37012-5.77002-41.56006-15.33008v-2.55005c11.18994 9.56006 25.70019 15.33008 41.56006 15.33008s30.37012-5.77003 41.56006-15.33008z" fill="#2e6bce" opacity=".5"/><path d="m70.67899 128.74162c-.05005.01001-.10986.02002-.16992.02002-.17993.02002-.36011.04004-.54004.04004-.32007.03003-.6499.06006-.96997.06982-.3501.03003-.68994.05005-1.04004.06006-.48999.03003-.97998.04004-1.47998.05005-.48999.01001-.97998.02002-1.47998.02002s-.98999-.01001-1.47998-.02002c-.5-.01001-.98999-.02002-1.47998-.05005-.33008-.01001-.66016-.03003-.98999-.0498-.36011-.02002-.71997-.05005-1.08008-.08008-.15991-.01001-.32007-.02002-.47998-.04004-.06006 0-.11011-.01001-.16992-.02002l.16992-1.54004.11011-.97998c1.77979.1499 3.57983.22998 5.39991.22998 1.82007 0 3.62012-.08008 5.3999-.22998l.11011 1.01001z" fill="#fab941"/></g><g fill="#83d3f2"><path d="m121.5023 60.02183c-1.20473 0-2.19299.97946-2.19299 2.19293 0-1.21347-.97936-2.19294-2.19299-2.19294 1.21362 0 2.19299-.98814 2.19299-2.19298-.00001 1.20484.98825 2.19298 2.19299 2.19299z"/><path d="m31.97847 57.70117c-1.1476 0-2.08899.93301-2.08899 2.08893 0-1.15592-.93292-2.08894-2.08899-2.08894 1.15607 0 2.08899-.94128 2.08899-2.08898.00001 1.14771.94139 2.08899 2.08899 2.08899z"/><path d="m109.74435 33.34929c-1.1476 0-2.08898.93301-2.08899 2.08893.00001-1.15591-.93291-2.08893-2.08898-2.08894 1.15607 0 2.08899-.94128 2.08899-2.08898-.00001 1.1477.94138 2.08899 2.08898 2.08899z"/><path d="m90.01884 13.26717c-.96792 0-1.76192.78693-1.76192 1.76187 0-.97494-.78685-1.76187-1.76192-1.76188.97507 0 1.76192-.7939 1.76192-1.76191 0 .96801.794 1.76192 1.76192 1.76192z"/><path d="m18.62681 91.52053c-1.339-.00001-2.4374 1.08862-2.4374 2.43733 0-1.34871-1.08851-2.43734-2.4374-2.43735 1.34888.00001 2.4374-1.09827 2.4374-2.43739 0 1.33913 1.0984 2.4374 2.4374 2.43741z"/><path d="m103.0285 58.37257c-1.10517 0-2.01176.89852-2.01176 2.0117 0-1.11319-.89843-2.01171-2.01176-2.01171 1.11333 0 2.01176-.90648 2.01176-2.01175 0 1.10527.90658 2.01176 2.01176 2.01176z"/><path d="m53.47076 8.91594c1.42247 0 2.58933-1.15648 2.58933-2.58924 0 1.43277 1.15636 2.58925 2.58933 2.58925-1.43296 0-2.58933 1.16672-2.58933 2.58931.00001-1.42259-1.16686-2.58932-2.58933-2.58932z"/><path d="m12.7795 69.14951c1.71152 0 3.11549-1.39148 3.11549-3.11538 0 1.7239 1.39134 3.11539 3.11549 3.11539-1.72415 0-3.11549 1.40381-3.11549 3.11546 0-1.71165-1.40397-3.11547-3.11549-3.11547z"/><path d="m118.87421 84.40471c-1.25766 0-2.28933 1.02249-2.28933 2.28926 0-1.26677-1.02238-2.28927-2.28932-2.28927 1.26694 0 2.28932-1.03155 2.28932-2.28931 0 1.25776 1.03167 2.28932 2.28933 2.28932z"/><path d="m30.15516 30.0801c0-1.66828-1.35633-3.03679-3.03668-3.03679 1.68035 0 3.03668-1.35619 3.03668-3.03678 0 1.68059 1.36834 3.03679 3.03675 3.03679-1.6684 0-3.03675 1.3685-3.03675 3.03678z"/></g><path d="m120.97086 59.29687c-1.20473 0-2.19299.97947-2.19299 2.19293 0-1.21347-.97936-2.19294-2.19299-2.19294 1.21363 0 2.19299-.98814 2.19299-2.19298.00001 1.20484.98826 2.19299 2.19299 2.19299z" fill="#b9e9fc"/><path d="m31.44704 56.97622c-1.1476 0-2.08899.93301-2.08899 2.08893 0-1.15591-.93292-2.08893-2.08899-2.08894 1.15607 0 2.08899-.94128 2.08899-2.08898.00001 1.1477.94139 2.08899 2.08899 2.08899z" fill="#b9e9fc"/><path d="m16.10671 47.40742c-1.1476 0-2.08899.93301-2.08899 2.08893 0-1.15592-.93292-2.08894-2.08899-2.08894 1.15607 0 2.08899-.94128 2.08899-2.08898.00001 1.14771.94139 2.08899 2.08899 2.08899z" fill="#83d3f2"/><path d="m15.57528 46.68247c-1.1476 0-2.08899.93301-2.08899 2.08893 0-1.15591-.93292-2.08893-2.08899-2.08894 1.15607 0 2.08899-.94128 2.08899-2.08898.00001 1.1477.94139 2.08899 2.08899 2.08899z" fill="#b9e9fc"/><path d="m109.21292 32.62434c-1.14761 0-2.08899.93301-2.08899 2.08893 0-1.15591-.93291-2.08894-2.08899-2.08894 1.15607 0 2.08899-.94128 2.08899-2.08898 0 1.1477.94139 2.08898 2.08899 2.08899z" fill="#b9e9fc"/><path d="m89.48741 12.54221c-.96793 0-1.76192.78693-1.76192 1.76187 0-.97494-.78686-1.76188-1.76192-1.76188.97506 0 1.76192-.7939 1.76192-1.76191 0 .96801.794 1.76192 1.76192 1.76192z" fill="#b9e9fc"/><path d="m18.09538 90.79557c-1.339 0-2.4374 1.08863-2.4374 2.43734 0-1.34871-1.08851-2.43735-2.4374-2.43735 1.34888 0 2.4374-1.09827 2.4374-2.43739 0 1.33913 1.0984 2.4374 2.4374 2.4374z" fill="#b9e9fc"/><path d="m102.49707 57.64761c-1.10518 0-2.01176.89852-2.01176 2.0117 0-1.11318-.89842-2.01171-2.01176-2.01171 1.11333 0 2.01176-.90648 2.01176-2.01175 0 1.10528.90658 2.01176 2.01176 2.01176z" fill="#b9e9fc"/><path d="m52.93933 8.19098c1.42247 0 2.58933-1.15648 2.58933-2.58924 0 1.43277 1.15636 2.58925 2.58933 2.58925-1.43296 0-2.58933 1.16672-2.58933 2.58931 0-1.42259-1.16686-2.58932-2.58933-2.58932z" fill="#b9e9fc"/><path d="m12.14009 68.27724c1.71152.00001 3.11549-1.39147 3.11549-3.11538 0 1.72391 1.39134 3.11539 3.11549 3.11539-1.72415-.00001-3.11549 1.4038-3.11549 3.11546 0-1.71165-1.40397-3.11546-3.11549-3.11547z" fill="#b9e9fc"/><path d="m118.34278 83.67976c-1.25766 0-2.28932 1.02249-2.28932 2.28926 0-1.26677-1.02239-2.28927-2.28933-2.28927 1.26694 0 2.28933-1.03155 2.28933-2.28931 0 1.25776 1.03166 2.28932 2.28932 2.28932z" fill="#b9e9fc"/><path d="m29.62374 29.35515c0-1.66829-1.35633-3.03679-3.03668-3.03679 1.68036 0 3.03668-1.35619 3.03668-3.03678 0 1.68059 1.36834 3.03679 3.03675 3.03679-1.66841 0-3.03675 1.36849-3.03675 3.03678z" fill="#b9e9fc"/></g></svg>