<?xml version="1.0" encoding="iso-8859-1"?>
<!-- Generator: Adobe Illustrator 19.0.0, SVG Export Plug-In . SVG Version: 6.00 Build 0)  -->
<svg version="1.1" id="Capa_1" xmlns="http://www.w3.org/2000/svg" xmlns:xlink="http://www.w3.org/1999/xlink" x="0px" y="0px"
	 viewBox="0 0 512 512" style="enable-background:new 0 0 512 512;" xml:space="preserve">
<circle style="fill:#FF7A53;" cx="256" cy="256" r="256"/>
<path style="fill:#EE2600;" d="M512,256c0-17.397-1.744-34.386-5.051-50.808l-97.565-97.515c-4.731-5.507-11.736-9.01-19.521-9.01
	h-64.724c-14.16,0-25.745,11.586-25.745,25.746v13.239H192.446l-18.668,15.333l13.519,15.702l68.634,68.683
	c-15.237-5.066-29.423-9.784-31.548-10.496c-7.554-2.53-16.71-6.696-25.961-2.366c-2.644,1.237-42.778,20.023-73.115,34.223
	l-14.921-15.267l-59.677,27.933l0,0l65.096,139.073l98.06,98.06c13.71,2.269,27.781,3.47,42.135,3.47
	C397.385,512,512,397.385,512,256z"/>
<path style="fill:#FFDBA9;" d="M143.982,386.813l74.996-35.103c14.847-6.949,17.657-8.464,44.897-0.034
	c21.717,6.72,44.699-3.322,64.494-12.588l107.606-50.367c15.994-7.486,23.559-25.095,16.896-39.33l0,0
	c-6.663-14.235-25.03-19.706-41.025-12.22l-100.389,46.988c-1.916,0.897-4.075,1.052-5.971,0.428l-98.378-32.348
	c-1.896-0.623-4.055-0.468-5.971,0.428l-98.388,46.053L143.982,386.813z"/>
<path style="fill:#FFC473;" d="M296.515,250.86c0,0-67.295-22.368-72.132-23.987c-7.554-2.53-16.71-6.697-25.961-2.366
	c-4.284,2.005-106.974,50.071-106.974,50.071l17.6,37.602l97.465-45.62l50.05,16.761c0.104,0.035,24.134,8.065,24.134,8.065
	c11.344,3.799,26.532-1.425,30.882-12.569l0,0C315.93,267.671,307.859,254.659,296.515,250.86z"/>
<polygon style="fill:#9CFDFF;" points="175.482,382.536 115.805,410.469 50.709,271.395 50.709,271.395 110.386,243.462 "/>
<rect x="93.211" y="308.956" transform="matrix(-0.9057 0.4239 -0.4239 -0.9057 390.8577 622.8488)" style="fill:#00E8F2;" width="65.89" height="91.879"/>
<polygon style="fill:#FFFFFF;" points="192.447,137.651 312.383,137.651 312.383,168.686 251.496,168.686 239.57,181.525 
	223.137,168.686 210.582,181.525 197.527,168.686 187.297,168.686 173.778,152.984 "/>
<polygon style="fill:#FFF5CB;" points="173.781,152.987 187.294,168.685 197.524,168.685 210.582,181.529 223.137,168.685 
	239.57,181.529 251.493,168.685 312.38,168.685 312.38,152.987 "/>
<path style="fill:#57555C;" d="M389.863,98.667h-64.724c-14.16,0-25.745,11.585-25.745,25.745v57.143
	c0,14.16,11.586,25.745,25.745,25.745h64.724c14.16,0,25.745-11.586,25.745-25.745v-57.143
	C415.608,110.252,404.023,98.667,389.863,98.667z M394.975,122.749v60.469h-22.61v-60.469H394.975z"/>
<path style="fill:#2A2A2C;" d="M299.398,152.987v28.571c0,14.157,11.586,25.743,25.743,25.743h64.717
	c14.167,0,25.753-11.586,25.753-25.743v-28.571h-20.64v30.236h-22.61v-30.236H299.398z"/>
<g>
</g>
<g>
</g>
<g>
</g>
<g>
</g>
<g>
</g>
<g>
</g>
<g>
</g>
<g>
</g>
<g>
</g>
<g>
</g>
<g>
</g>
<g>
</g>
<g>
</g>
<g>
</g>
<g>
</g>
</svg>
